<svg width="17" height="17" viewBox="0 0 17 17" fill="none" xmlns="http://www.w3.org/2000/svg">
<path d="M12.8047 4.9375V4.49219C12.8038 3.36922 12.3646 2.29096 11.5807 1.48695C10.7967 0.682939 9.72983 0.216703 8.60725 0.1875H8.39275C7.27017 0.216703 6.20332 0.682939 5.41934 1.48695C4.63537 2.29096 4.19619 3.36922 4.19531 4.49219V4.9375H0.929688C0.890319 4.9375 0.852564 4.95314 0.824726 4.98098C0.796889 5.00881 0.78125 5.04657 0.78125 5.08594V16.2188C0.78125 16.3762 0.843806 16.5272 0.955155 16.6386C1.06651 16.7499 1.21753 16.8125 1.375 16.8125H15.625C15.7825 16.8125 15.9335 16.7499 16.0448 16.6386C16.1562 16.5272 16.2188 16.3762 16.2188 16.2188V5.08594C16.2188 5.04657 16.2031 5.00881 16.1753 4.98098C16.1474 4.95314 16.1097 4.9375 16.0703 4.9375H12.8047ZM11.3203 4.9375H5.67969V4.5293C5.67969 2.97664 6.91951 1.6882 8.47217 1.67188C8.84476 1.66859 9.21432 1.7391 9.55954 1.87933C9.90476 2.01955 10.2188 2.22673 10.4836 2.48891C10.7483 2.75109 10.9586 3.06308 11.1022 3.4069C11.2458 3.75073 11.3199 4.11958 11.3203 4.49219V4.9375Z" fill="#BEBEC3"/>
</svg>
