<svg width="19" height="16" viewBox="0 0 19 16" fill="none" xmlns="http://www.w3.org/2000/svg">
<path d="M17.375 0.625H2.28125V11.0569C2.28089 11.1647 2.30195 11.2715 2.34321 11.371C2.38448 11.4706 2.44511 11.561 2.5216 11.6369L3.73772 12.8534C3.81374 12.9299 3.90419 12.9905 4.00381 13.0317C4.10344 13.073 4.21026 13.0941 4.31809 13.0938H12.7132C12.821 13.0941 12.9278 13.073 13.0274 13.0317C13.1271 12.9905 13.2175 12.9299 13.2935 12.8534L14.5096 11.6369C14.5861 11.561 14.6468 11.4706 14.688 11.371C14.7293 11.2715 14.7504 11.1647 14.75 11.0569V5.875H16.0625C16.2365 5.87492 16.4034 5.80573 16.5264 5.68264L17.8389 4.37014C17.962 4.24713 18.0312 4.08027 18.0312 3.90625V1.28125C18.0312 1.1072 17.9621 0.940282 17.839 0.817211C17.716 0.694141 17.549 0.625 17.375 0.625ZM16.7188 3.63432L15.7906 4.5625H14.75V1.9375H16.7188V3.63432ZM0.96875 14.4062H16.0625V15.7188H0.96875V14.4062Z" fill="#BEBEC3"/>
</svg>
