<svg width="19" height="19" viewBox="0 0 19 19" fill="none" xmlns="http://www.w3.org/2000/svg">
<path fill-rule="evenodd" clip-rule="evenodd" d="M18.7001 9.50005C18.7001 11.94 17.7308 14.2801 16.0054 16.0054C14.2801 17.7308 11.94 18.7001 9.50005 18.7001C7.06006 18.7001 4.72 17.7308 2.99467 16.0054C1.26933 14.2801 0.300049 11.94 0.300049 9.50005C0.300049 7.06006 1.26933 4.72 2.99467 2.99467C4.72 1.26933 7.06006 0.300049 9.50005 0.300049C11.94 0.300049 14.2801 1.26933 16.0054 2.99467C17.7308 4.72 18.7001 7.06006 18.7001 9.50005ZM11.8 6.05005C11.8 6.66005 11.5577 7.24506 11.1264 7.67639C10.6951 8.10773 10.11 8.35005 9.50005 8.35005C8.89005 8.35005 8.30504 8.10773 7.8737 7.67639C7.44237 7.24506 7.20005 6.66005 7.20005 6.05005C7.20005 5.44005 7.44237 4.85504 7.8737 4.4237C8.30504 3.99237 8.89005 3.75005 9.50005 3.75005C10.11 3.75005 10.6951 3.99237 11.1264 4.4237C11.5577 4.85504 11.8 5.44005 11.8 6.05005ZM9.50005 10.65C8.39904 10.6498 7.32112 10.9657 6.39438 11.5602C5.46764 12.1546 4.73105 13.0026 4.27215 14.0035C4.91923 14.7562 5.72146 15.3602 6.62384 15.7738C7.52621 16.1875 8.50738 16.4011 9.50005 16.4001C10.4927 16.4011 11.4739 16.1875 12.3763 15.7738C13.2786 15.3602 14.0809 14.7562 14.7279 14.0035C14.269 13.0026 13.5325 12.1546 12.6057 11.5602C11.679 10.9657 10.6011 10.6498 9.50005 10.65Z" fill="#BEBEC3"/>
</svg>
