<svg width="22" height="22" viewBox="0 0 22 22" fill="none" xmlns="http://www.w3.org/2000/svg">
<path fill-rule="evenodd" clip-rule="evenodd" d="M21.56 11.2445C21.558 10.4907 21.4926 9.73843 21.3644 8.99561H11V13.2612H16.9156C16.7943 13.9327 16.5379 14.5726 16.1618 15.1419C15.7857 15.7113 15.2978 16.1983 14.7278 16.5734V19.3356H18.3333C19.4157 18.2917 20.2667 17.032 20.831 15.6381C21.3953 14.2443 21.6603 12.7474 21.6089 11.2445H21.56Z" fill="#4285F4"/>
<path fill-rule="evenodd" clip-rule="evenodd" d="M10.9999 22.0001C13.6953 22.0832 16.3199 21.1296 18.3333 19.3356L14.7766 16.5734C13.6662 17.2866 12.3683 17.6526 11.0488 17.6245C9.68537 17.5973 8.36425 17.146 7.26906 16.3333C6.17387 15.5207 5.35902 14.3871 4.93773 13.0901H1.22217V15.889C2.12688 17.7126 3.5199 19.2494 5.24618 20.3283C6.97246 21.4073 8.96428 21.986 10.9999 22.0001Z" fill="#34A853"/>
<path fill-rule="evenodd" clip-rule="evenodd" d="M4.88897 13.09C4.43253 11.734 4.43253 10.2659 4.88897 8.90997V6.11108H1.2223C0.468435 7.63055 0.0761719 9.30377 0.0761719 11C0.0761719 12.6962 0.468435 14.3694 1.2223 15.8889L4.88897 13.0411V13.09Z" fill="#FBBC05"/>
<path fill-rule="evenodd" clip-rule="evenodd" d="M10.9999 4.37555C12.5647 4.34648 14.077 4.93997 15.2044 6.02555L18.3333 2.86C16.3481 0.998304 13.7214 -0.0261019 10.9999 -1.51392e-06C8.96428 0.0141048 6.97246 0.592827 5.24618 1.67175C3.5199 2.75068 2.12688 4.28748 1.22217 6.11111L4.88884 8.95889C5.31013 7.66185 6.12499 6.52825 7.22017 5.71563C8.31536 4.903 9.63648 4.4517 10.9999 4.42444V4.37555Z" fill="#EA4335"/>
</svg>
