<svg width="24" height="25" viewBox="0 0 24 25" fill="none" xmlns="http://www.w3.org/2000/svg">
<path d="M12 2.16402C15.2043 2.16402 15.5835 2.17641 16.8491 2.23404C18.019 2.28739 18.6545 2.48269 19.0775 2.64703C19.5993 2.83918 20.0714 3.14603 20.4589 3.54494C20.8578 3.9324 21.1646 4.40447 21.3568 4.92633C21.5211 5.34932 21.7164 5.98476 21.7698 7.15465C21.8274 8.42029 21.8398 8.79946 21.8398 12.0038C21.8398 15.2082 21.8274 15.5873 21.7698 16.853C21.7164 18.0229 21.5211 18.6583 21.3568 19.0813C21.1569 19.5987 20.8511 20.0686 20.4589 20.4608C20.0667 20.853 19.5968 21.1588 19.0794 21.3587C18.6564 21.523 18.0209 21.7183 16.8511 21.7717C15.5859 21.8293 15.2062 21.8417 12.0019 21.8417C8.79755 21.8417 8.4179 21.8293 7.15274 21.7717C5.98285 21.7183 5.34741 21.523 4.92442 21.3587C4.40256 21.1665 3.93049 20.8597 3.54303 20.4608C3.14412 20.0733 2.83727 19.6012 2.64512 19.0794C2.48079 18.6564 2.28549 18.021 2.23214 16.8511C2.1745 15.5854 2.16211 15.2063 2.16211 12.0019C2.16211 8.79756 2.1745 8.41839 2.23214 7.15275C2.28549 5.98285 2.48079 5.34741 2.64512 4.92442C2.83727 4.40256 3.14412 3.93049 3.54303 3.54303C3.93049 3.14412 4.40256 2.83728 4.92442 2.64513C5.34741 2.48079 5.98285 2.28549 7.15274 2.23214C8.41838 2.1745 8.79755 2.16212 12.0019 2.16212L12 2.16402ZM12.0019 0C8.74277 0 8.33407 0.0138139 7.05414 0.0724039C5.77421 0.130994 4.90251 0.335345 4.14036 0.631629C3.33944 0.933128 2.61382 1.4055 2.01397 2.01588C1.40359 2.61572 0.931222 3.34135 0.629723 4.14227C0.333439 4.90441 0.130518 5.77803 0.0724039 7.0551C0.0142902 8.33217 0 8.74278 0 12.0019C0 15.261 0.0138139 15.6697 0.0724039 16.9497C0.130994 18.2296 0.333439 19.0994 0.629723 19.8615C0.931344 20.6621 1.40371 21.3874 2.01397 21.987C2.61361 22.5977 3.33928 23.0703 4.14036 23.3717C4.90251 23.6685 5.77611 23.8714 7.05319 23.9295C8.33026 23.9876 8.74182 24.0019 12.0009 24.0019C15.2601 24.0019 15.6688 23.9881 16.9487 23.9295C18.2286 23.8709 19.0975 23.6685 19.8596 23.3717C20.6571 23.0636 21.3813 22.5922 21.9858 21.9877C22.5903 21.3832 23.0617 20.659 23.3698 19.8615C23.6665 19.0994 23.8695 18.2258 23.9276 16.9487C23.9857 15.6716 24 15.2601 24 12.001C24 8.74182 23.9862 8.33312 23.9276 7.05319C23.869 5.77326 23.6665 4.90441 23.3698 4.14227C23.0685 3.34162 22.5963 2.61629 21.986 2.01683C21.3863 1.40611 20.6606 0.933407 19.8596 0.631629C19.0975 0.335345 18.2239 0.132423 16.9468 0.0743093C15.6697 0.0161956 15.2591 0.00190537 12 0.00190537L12.0019 0Z" fill="white"/>
<path d="M12 5.84009C10.7813 5.84009 9.5899 6.20148 8.57657 6.87856C7.56324 7.55565 6.77345 8.51802 6.30707 9.64397C5.84068 10.7699 5.71866 12.0089 5.95642 13.2042C6.19418 14.3995 6.78105 15.4974 7.64281 16.3592C8.50458 17.221 9.60253 17.8078 10.7978 18.0456C11.9931 18.2834 13.2321 18.1613 14.3581 17.695C15.484 17.2286 16.4464 16.4388 17.1235 15.4254C17.8005 14.4121 18.1619 13.2208 18.1619 12.002C18.162 11.1928 18.0026 10.3915 17.693 9.64389C17.3834 8.89626 16.9295 8.21695 16.3573 7.64474C15.7851 7.07254 15.1058 6.61866 14.3581 6.30901C13.6105 5.99937 12.8092 5.84003 12 5.84009ZM12 16.0033C11.2086 16.0033 10.435 15.7686 9.77699 15.329C9.11898 14.8893 8.60613 14.2644 8.30328 13.5333C8.00043 12.8021 7.92119 11.9976 8.07558 11.2214C8.22997 10.4453 8.61106 9.73231 9.17065 9.17272C9.73023 8.61313 10.4432 8.23205 11.2194 8.07766C11.9955 7.92327 12.8001 8.00251 13.5312 8.30535C14.2623 8.6082 14.8872 9.12105 15.3269 9.77906C15.7666 10.4371 16.0012 11.2107 16.0012 12.002C16.0012 13.0632 15.5797 14.081 14.8293 14.8314C14.0789 15.5818 13.0612 16.0033 12 16.0033Z" fill="white"/>
<path d="M18.4058 7.03621C19.2011 7.03621 19.8458 6.39151 19.8458 5.59623C19.8458 4.80095 19.2011 4.15625 18.4058 4.15625C17.6105 4.15625 16.9658 4.80095 16.9658 5.59623C16.9658 6.39151 17.6105 7.03621 18.4058 7.03621Z" fill="white"/>
</svg>
