<svg width="22" height="21" viewBox="0 0 22 21" fill="none" xmlns="http://www.w3.org/2000/svg">
<path d="M22 8.94541C22 4.0233 17.0655 0.0187988 11 0.0187988C4.93448 0.0187988 0 4.0233 0 8.94541C0 13.3582 3.91789 17.0544 9.1988 17.7524C9.5576 17.8297 10.0453 17.9885 10.168 18.2947C10.2793 18.5731 10.2412 19.0092 10.204 19.2897C10.204 19.2897 10.0752 20.066 10.0473 20.231C9.99887 20.5094 9.82566 21.3187 11 20.8249C12.1743 20.331 17.3346 17.0946 19.642 14.4377C21.236 12.6901 22 10.9126 22 8.94541Z" fill="white"/>
<path d="M18.3398 11.788H15.2467C15.192 11.788 15.1396 11.7663 15.1009 11.7276C15.0623 11.6889 15.0405 11.6365 15.0405 11.5818V6.78238C15.0405 6.72769 15.0623 6.67524 15.1009 6.63657C15.1396 6.5979 15.192 6.57617 15.2467 6.57617H18.3398C18.3945 6.57617 18.4469 6.5979 18.4856 6.63657C18.5243 6.67524 18.546 6.72769 18.546 6.78238V7.56286C18.546 7.61755 18.5243 7.67 18.4856 7.70867C18.4469 7.74734 18.3945 7.76907 18.3398 7.76907H16.2396V8.57842H18.3398C18.3945 8.57842 18.4469 8.60015 18.4856 8.63882C18.5243 8.67749 18.546 8.72994 18.546 8.78463V9.57233C18.546 9.62702 18.5243 9.67947 18.4856 9.71814C18.4469 9.75681 18.3945 9.77853 18.3398 9.77853H16.2396V10.5889H18.3398C18.3945 10.5889 18.4469 10.6106 18.4856 10.6493C18.5243 10.688 18.546 10.7404 18.546 10.7951V11.5746C18.547 11.6023 18.5424 11.6298 18.5324 11.6557C18.5225 11.6816 18.5075 11.7052 18.4882 11.7251C18.469 11.745 18.4459 11.7608 18.4204 11.7716C18.3949 11.7825 18.3675 11.788 18.3398 11.788Z" fill="#06C755"/>
<path d="M6.90898 11.7881C6.96367 11.7881 7.01612 11.7663 7.05479 11.7277C7.09346 11.689 7.11518 11.6365 7.11518 11.5819V10.8024C7.11518 10.7477 7.09346 10.6953 7.05479 10.6566C7.01612 10.6179 6.96367 10.5962 6.90898 10.5962H4.80878V6.7814C4.80878 6.72671 4.78706 6.67426 4.74839 6.63559C4.70971 6.59692 4.65727 6.5752 4.60258 6.5752H3.819C3.76431 6.5752 3.71186 6.59692 3.67319 6.63559C3.63452 6.67426 3.61279 6.72671 3.61279 6.7814V11.5788C3.61279 11.6334 3.63452 11.6859 3.67319 11.7246C3.71186 11.7632 3.76431 11.785 3.819 11.785H6.91207L6.90898 11.7881Z" fill="#06C755"/>
<path d="M8.76884 6.56665H7.98938C7.87322 6.56665 7.77905 6.66082 7.77905 6.77698V11.5774C7.77905 11.6936 7.87322 11.7878 7.98938 11.7878H8.76884C8.885 11.7878 8.97917 11.6936 8.97917 11.5774V6.77698C8.97917 6.66082 8.885 6.56665 8.76884 6.56665Z" fill="#06C755"/>
<path d="M14.0797 6.56665H13.3003C13.2456 6.56665 13.1931 6.58838 13.1544 6.62705C13.1158 6.66572 13.094 6.71817 13.094 6.77286V9.62467L10.898 6.65841C10.893 6.65056 10.8871 6.64329 10.8804 6.63676L10.8681 6.62439L10.8567 6.61511H10.8505L10.8392 6.60686H10.833L10.8217 6.60067H10.8145H10.8031H10.7959H10.7835H10.7753H10.7629H10.7547H10.7433H9.94839C9.8937 6.60067 9.84125 6.6224 9.80258 6.66107C9.76391 6.69974 9.74219 6.75219 9.74219 6.80688V11.6073C9.74219 11.662 9.76391 11.7145 9.80258 11.7531C9.84125 11.7918 9.8937 11.8135 9.94839 11.8135H10.7289C10.7836 11.8135 10.836 11.7918 10.8747 11.7531C10.9134 11.7145 10.9351 11.662 10.9351 11.6073V8.72768L13.1343 11.697C13.1487 11.7181 13.1668 11.7362 13.1879 11.7506L13.2002 11.7589H13.2064L13.2167 11.764H13.2271H13.2343H13.2487C13.2669 11.7685 13.2856 11.771 13.3044 11.7713H14.0797C14.1344 11.7713 14.1868 11.7495 14.2255 11.7109C14.2642 11.6722 14.2859 11.6197 14.2859 11.5651V6.77698C14.2865 6.74956 14.2815 6.7223 14.2714 6.6968C14.2613 6.67131 14.2462 6.64808 14.227 6.6285C14.2078 6.60891 14.1849 6.59335 14.1596 6.58273C14.1343 6.57211 14.1071 6.56664 14.0797 6.56665Z" fill="#06C755"/>
</svg>
